<?xml version="1.0" encoding="utf-8"?>
<!-- Generator: Adobe Illustrator 23.0.2, SVG Export Plug-In . SVG Version: 6.00 Build 0)  -->
<svg version="1.1" id="Layer_1" xmlns="http://www.w3.org/2000/svg" xmlns:xlink="http://www.w3.org/1999/xlink" x="0px" y="0px"
	 viewBox="0 0 640.8 17" style="enable-background:new 0 0 640.8 17;" xml:space="preserve">
<style type="text/css">
	.st0{fill:none;stroke:#FFFFFF;stroke-width:0.75;stroke-miterlimit:10;}
	.st1{fill:#FFFFFF;}
</style>
<title>Asset 2</title>
<g>
	<g id="Layer_1-2">
		<path class="st0" d="M3.9,3.5L3.9,3.5c1.9,0,3.5,1.6,3.5,3.5l0,0c0,1.9-1.6,3.5-3.5,3.5l0,0c-1.9,0-3.5-1.6-3.5-3.5l0,0
			C0.4,5.1,1.9,3.5,3.9,3.5z"/>
		<line class="st0" x1="344.8" y1="8.6" x2="632.9" y2="9.5"/>
		<path class="st0" d="M344.8,8.6"/>
		<path class="st0" d="M294.8,8.4"/>
		<line class="st0" x1="7.9" y1="7.5" x2="294.8" y2="8.4"/>
		<path class="st0" d="M636.9,5.5L636.9,5.5c1.9,0,3.5,1.6,3.5,3.5l0,0c0,1.9-1.6,3.5-3.5,3.5l0,0c-1.9,0-3.5-1.6-3.5-3.5l0,0
			C633.4,7.1,634.9,5.5,636.9,5.5z"/>
		<path class="st1" d="M297.5,4.1h1.6l3.5,4.3l3.5-4.3h1.6l-4.3,5.1l4.7,5.6h-1.6l-3.9-4.7l-3.8,4.7h-1.6l4.6-5.6L297.5,4.1z"/>
		<path class="st1" d="M315.1,4.1h1.6l3.5,4.3l3.5-4.3h1.6l-4.3,5.1l4.7,5.6h-1.6l-3.9-4.7l-3.8,4.7h-1.6l4.6-5.6L315.1,4.1z"/>
		<path class="st1" d="M332.7,4.1h1.6l3.5,4.3l3.5-4.3h1.6l-4.3,5.1l4.7,5.6h-1.6l-3.9-4.7l-3.8,4.7h-1.6l4.6-5.6L332.7,4.1z"/>
	</g>
</g>
</svg>
