<?xml version="1.0" encoding="utf-8"?>
<!-- Generator: Adobe Illustrator 17.1.0, SVG Export Plug-In . SVG Version: 6.00 Build 0)  -->
<!DOCTYPE svg PUBLIC "-//W3C//DTD SVG 1.1//EN" "http://www.w3.org/Graphics/SVG/1.1/DTD/svg11.dtd">
<svg version="1.1" id="Layer_1" xmlns="http://www.w3.org/2000/svg" xmlns:xlink="http://www.w3.org/1999/xlink" x="0px" y="0px"
	 width="108.5px" height="106px" viewBox="0 0 108.5 106" enable-background="new 0 0 108.5 106" xml:space="preserve">
<g>
	<path fill="#FBF6F0" d="M79.8,51.1c-0.1-0.1-0.2-0.1-0.4-0.2c-1.7-0.9-3.7-1.4-5.6-1.2c-0.9,0.1-2.2,0.5-3.7,1.2
		c-0.7-0.3-1.4-0.7-2.2-1.1c0.7-0.6,1.4-1.2,2-1.6c1.2,0.2,2.1,0.4,2.9,0.4c0.3,0,0.6,0,0.9-0.1c1.9-0.3,3.7-1.1,5.1-2.4
		c0.1-0.1,0.2-0.2,0.3-0.3c0,0,0.1-0.1,0-0.1c0,0,0-0.1-0.1-0.1c-0.1,0-0.3-0.1-0.4-0.1c-1.9-0.5-3.9-0.5-5.7,0.1
		c-0.9,0.3-2,0.9-3.3,1.9c-0.7-0.2-1.5-0.4-2.4-0.6c0.6-0.8,1.1-1.5,1.5-2c1.7,0,2.9-0.2,3.8-0.6c1.8-0.7,3.4-1.9,4.5-3.5l0,0
		c0.1-0.1,0.2-0.3,0.3-0.4c0,0,0-0.1,0-0.1c0,0-0.1-0.1-0.1-0.1c-0.1,0-0.3,0-0.4,0c-0.2,0-0.4,0-0.5,0c-1.8,0-3.5,0.5-5,1.4
		c-0.8,0.5-1.8,1.4-2.8,2.6c-0.8,0-1.6,0-2.5-0.1c0.4-0.9,0.7-1.7,1.1-2.3c1.6-0.4,2.8-0.9,3.6-1.4c1.6-1.1,2.9-2.6,3.6-4.4
		c0.1-0.1,0.1-0.3,0.2-0.4c0,0,0-0.1,0-0.1c0,0-0.1-0.1-0.1-0.1c-0.1,0-0.3,0-0.4,0.1c-1.9,0.3-3.7,1.2-5.1,2.6
		c-0.7,0.6-1.4,1.7-2.2,3.2c-0.7,0.2-1.5,0.3-2.5,0.5c0.2-0.9,0.3-1.8,0.5-2.5c1.5-0.8,2.5-1.5,3.2-2.2c1.3-1.4,2.2-3.2,2.5-5.1
		c0-0.2,0.1-0.3,0.1-0.5c0,0,0-0.1-0.1-0.1c0,0-0.1,0-0.1,0c-0.1,0-0.3,0.1-0.4,0.2c-1.8,0.8-3.3,2-4.4,3.6c-0.5,0.8-1,2-1.4,3.6
		c-0.7,0.3-1.4,0.7-2.3,1c-0.1-0.9-0.1-1.8-0.1-2.6c1.3-1.1,2.2-2,2.6-2.8c1-1.7,1.4-3.6,1.4-5.5l0,0l0,0c0-0.2,0-0.3,0-0.5
		c0,0,0-0.1-0.1-0.1c0,0-0.1,0-0.1,0c-0.1,0.1-0.2,0.2-0.3,0.2c-1.6,1.1-2.8,2.7-3.5,4.5c-0.3,0.9-0.5,2.2-0.6,3.8
		c-0.6,0.5-1.2,1-2,1.5c-0.3-0.9-0.5-1.7-0.6-2.5c1-1.3,1.7-2.4,1.9-3.3c0.6-1.8,0.6-3.8,0.1-5.7l0,0v0c0-0.2-0.1-0.3-0.1-0.4
		c0,0-0.1-0.1-0.1-0.1c0,0-0.1,0-0.1,0c-0.1,0.1-0.2,0.2-0.3,0.3c-1.3,1.5-2.1,3.3-2.4,5.2c-0.1,0.9,0,2.2,0.3,3.8
		c-0.5,0.6-1,1.2-1.6,1.9c-0.5-0.8-0.8-1.6-1.2-2.3c0.7-1.5,1.1-2.7,1.1-3.7c0.2-1.9-0.2-3.8-1.2-5.5h0c-0.1-0.1-0.2-0.3-0.2-0.4
		c0,0-0.1-0.1-0.1-0.1s-0.1,0-0.1,0.1C54.1,25.8,54,26,54,26.1v0c-0.9,1.7-1.4,3.6-1.2,5.6c0.1,0.9,0.5,2.2,1.2,3.7
		c-0.3,0.7-0.7,1.4-1.1,2.2c-0.6-0.7-1.2-1.4-1.6-2c0.3-1.6,0.4-2.9,0.3-3.8c-0.3-1.9-1.1-3.7-2.4-5.1l0,0c-0.1-0.1-0.2-0.2-0.3-0.3
		c0,0-0.1,0-0.1,0c0,0-0.1,0-0.1,0.1c0,0.1-0.1,0.3-0.1,0.4v0l0,0c-0.5,1.9-0.5,3.9,0.1,5.7c0.3,0.9,0.9,2,1.9,3.3
		c-0.2,0.7-0.4,1.5-0.6,2.4c-0.8-0.6-1.5-1.1-2-1.5c0-1.6-0.2-2.9-0.6-3.8c-0.7-1.8-1.9-3.4-3.5-4.5l0,0c-0.1-0.1-0.3-0.2-0.4-0.3
		c0,0-0.1,0-0.1,0s-0.1,0.1-0.1,0.1c0,0.1,0,0.3,0,0.4l0,0v0l0,0c-0.1,2,0.4,3.9,1.3,5.6c0.5,0.8,1.4,1.8,2.6,2.8
		c0,0.7,0,1.6-0.1,2.5c-0.9-0.4-1.7-0.7-2.3-1.1c-0.4-1.6-0.9-2.8-1.4-3.6c-1.1-1.6-2.6-2.9-4.4-3.6h0l0,0c-0.1-0.1-0.3-0.1-0.4-0.2
		c0,0-0.1,0-0.1,0c0,0-0.1,0.1-0.1,0.1c0,0.1,0,0.3,0.1,0.4c0.3,1.9,1.2,3.7,2.6,5.1c0.6,0.7,1.7,1.4,3.2,2.2
		c0.2,0.7,0.3,1.5,0.5,2.5c-0.9-0.2-1.8-0.3-2.5-0.5c-0.7-1.5-1.5-2.5-2.1-3.2c-1.4-1.3-3.2-2.2-5.1-2.5c-0.2,0-0.3-0.1-0.5-0.1
		c0,0-0.1,0-0.1,0.1c0,0,0,0.1,0,0.1c0,0.1,0.1,0.3,0.2,0.4l0,0v0c0.8,1.8,2,3.3,3.6,4.4c0.8,0.5,2,1,3.6,1.4c0.3,0.7,0.7,1.4,1,2.3
		c-1,0.1-1.8,0.1-2.6,0.1c-1.1-1.3-2-2.2-2.8-2.6c-1.7-1-3.6-1.4-5.5-1.4c-0.2,0-0.3,0-0.5,0c0,0-0.1,0-0.1,0.1c0,0,0,0.1,0,0.1
		c0.1,0.1,0.2,0.2,0.2,0.3l0,0c1.1,1.6,2.7,2.8,4.5,3.5c0.9,0.3,2.2,0.5,3.8,0.6c0.5,0.6,1,1.2,1.5,2c-0.9,0.3-1.7,0.5-2.5,0.6
		c-1.3-1-2.4-1.6-3.3-1.9c-1.8-0.6-3.8-0.6-5.7-0.1h0c-0.2,0-0.3,0.1-0.4,0.1c0,0-0.1,0.1-0.1,0.1s0,0.1,0,0.1
		c0.1,0.1,0.2,0.2,0.3,0.3l0,0c1.5,1.3,3.3,2.1,5.2,2.4c0.3,0,0.6,0.1,0.9,0.1c0.8,0,1.8-0.1,3-0.4c0.6,0.5,1.2,1,1.9,1.6
		c-0.8,0.5-1.6,0.8-2.3,1.2c-1.5-0.7-2.7-1.1-3.7-1.1c-1.9-0.2-3.9,0.3-5.5,1.2v0c-0.1,0.1-0.3,0.2-0.4,0.2c0,0-0.1,0.1-0.1,0.1
		s0,0.1,0.1,0.1c0.1,0.1,0.2,0.1,0.4,0.2c1.5,0.8,3.1,1.2,4.8,1.2c0.3,0,0.5,0,0.8,0c0.9-0.1,2.2-0.5,3.7-1.2
		c0.7,0.3,1.4,0.7,2.2,1.2c-0.7,0.6-1.4,1.2-2,1.6C37,54,35.8,53.9,34.8,54c-1.9,0.3-3.7,1.1-5.1,2.4h0c-0.1,0.1-0.2,0.2-0.3,0.3
		c0,0,0,0.1,0,0.1c0,0,0,0.1,0.1,0.1c0.1,0,0.3,0.1,0.4,0.1c0.9,0.3,1.8,0.4,2.7,0.4c1,0,2-0.2,3-0.5c0.9-0.3,2-0.9,3.3-1.9
		c0.7,0.2,1.5,0.4,2.4,0.6c-0.6,0.8-1.1,1.5-1.5,2c-1.7,0-2.9,0.2-3.8,0.6c-1.8,0.7-3.4,1.9-4.5,3.5c-0.1,0.1-0.2,0.3-0.3,0.4
		c0,0,0,0.1,0,0.1c0,0,0.1,0.1,0.1,0.1c0.1,0,0.3,0,0.4,0h0c0.2,0,0.4,0,0.5,0c1.8,0,3.5-0.5,5-1.4c0.8-0.5,1.8-1.4,2.8-2.6
		c0.8,0,1.6,0,2.5,0.1c-0.4,0.9-0.7,1.7-1.1,2.3c-1.6,0.4-2.8,0.9-3.6,1.4c-1.6,1.1-2.8,2.6-3.6,4.4c-0.1,0.1-0.1,0.3-0.2,0.4
		c0,0,0,0.1,0,0.1c0,0,0.1,0.1,0.1,0.1c0,0,0,0,0,0c0.1,0,0.3,0,0.4-0.1c1.9-0.3,3.7-1.2,5.1-2.6c0.7-0.6,1.4-1.7,2.2-3.2
		c0.7-0.2,1.5-0.3,2.5-0.5c-0.2,1-0.3,1.8-0.5,2.5c-1.5,0.7-2.5,1.5-3.2,2.1c-1.3,1.4-2.2,3.2-2.5,5.1l0,0l0,0
		c0,0.2-0.1,0.3-0.1,0.5c0,0,0,0.1,0.1,0.1c0,0,0.1,0,0.1,0c0,0,0,0,0,0c0.1,0,0.3-0.1,0.4-0.2c1.8-0.8,3.3-2,4.4-3.6
		c0.5-0.8,1-2,1.4-3.6c0.7-0.3,1.4-0.7,2.3-1c0.1,1,0.1,1.8,0.1,2.6c-1.3,1.1-2.2,2-2.6,2.8c-1,1.7-1.4,3.6-1.4,5.5l0,0v0l0,0
		c0,0.2,0,0.3,0,0.5c0,0,0,0.1,0.1,0.1c0,0,0,0,0.1,0c0,0,0.1,0,0.1,0c0.1-0.1,0.2-0.2,0.3-0.2c1.6-1.1,2.8-2.7,3.5-4.5
		c0.3-0.9,0.5-2.2,0.6-3.8c0.6-0.5,1.2-1,2-1.5c0.3,0.9,0.5,1.7,0.6,2.5c-1,1.3-1.6,2.4-1.9,3.3c-0.6,1.8-0.6,3.8-0.1,5.7
		c0,0.2,0.1,0.3,0.1,0.4c0,0,0.1,0.1,0.1,0.1c0,0,0,0,0,0c0,0,0.1,0,0.1,0c0.1-0.1,0.2-0.2,0.3-0.3c1.3-1.5,2.1-3.2,2.4-5.2
		c0.1-0.9,0-2.2-0.3-3.8c0.4-0.6,1-1.2,1.6-1.9c0.5,0.8,0.8,1.6,1.2,2.3c-0.7,1.5-1.1,2.7-1.1,3.7c-0.2,1.9,0.3,3.8,1.2,5.5l0,0
		c0.1,0.1,0.2,0.3,0.2,0.4c0,0,0.1,0.1,0.1,0.1s0.1,0,0.1-0.1c0.1-0.1,0.1-0.2,0.2-0.4c0.9-1.7,1.4-3.6,1.2-5.6
		c-0.1-0.9-0.5-2.2-1.2-3.7c0.3-0.7,0.7-1.4,1.1-2.2c0.6,0.7,1.2,1.4,1.6,2c-0.3,1.6-0.4,2.9-0.3,3.8c0.3,1.9,1.1,3.7,2.4,5.1l0,0
		c0.1,0.1,0.2,0.2,0.3,0.3c0,0,0.1,0,0.1,0c0,0,0,0,0,0c0,0,0.1,0,0.1-0.1c0-0.1,0.1-0.3,0.1-0.4l0,0c0.5-1.9,0.5-3.9-0.1-5.7
		c-0.3-0.9-0.9-2-1.9-3.3c0.2-0.7,0.4-1.5,0.6-2.4c0.8,0.6,1.5,1.1,2,1.5c0,1.6,0.2,2.9,0.6,3.8c0.7,1.8,1.9,3.4,3.5,4.5
		c0.1,0.1,0.3,0.2,0.4,0.3c0,0,0.1,0,0.1,0c0,0,0,0,0.1,0c0,0,0.1-0.1,0.1-0.1c0-0.1,0-0.3,0-0.4l0,0v0l0,0c0.1-1.9-0.4-3.9-1.3-5.6
		c-0.5-0.8-1.4-1.8-2.6-2.8c0-0.7,0-1.6,0.1-2.5c0.9,0.4,1.7,0.7,2.3,1.1c0.4,1.6,0.9,2.8,1.4,3.6c1.1,1.6,2.6,2.9,4.4,3.6
		c0.1,0.1,0.3,0.1,0.4,0.2c0,0,0,0,0.1,0c0,0,0.1,0,0.1,0c0,0,0.1-0.1,0.1-0.1c0-0.1,0-0.3-0.1-0.4l0,0c-0.3-1.9-1.2-3.7-2.6-5.1
		c-0.6-0.7-1.7-1.4-3.2-2.2c-0.2-0.7-0.3-1.6-0.5-2.5c1,0.2,1.8,0.3,2.5,0.5c0.7,1.5,1.5,2.5,2.1,3.2c1.4,1.3,3.2,2.2,5.1,2.5
		c0.2,0,0.3,0.1,0.5,0.1c0,0,0,0,0,0c0,0,0.1,0,0.1-0.1c0,0,0-0.1,0-0.1c0-0.1-0.1-0.3-0.2-0.4h0c-0.8-1.8-2-3.3-3.6-4.4
		c-0.8-0.5-2-1-3.6-1.4c-0.3-0.7-0.7-1.4-1-2.3c1-0.1,1.8-0.1,2.6-0.1c1.1,1.3,2,2.1,2.8,2.6c1.5,0.9,3.3,1.4,5,1.4
		c0.2,0,0.3,0,0.5,0c0.2,0,0.3,0,0.5,0c0,0,0.1,0,0.1-0.1c0,0,0-0.1,0-0.1c-0.1-0.1-0.2-0.2-0.2-0.3v0c-1.1-1.6-2.7-2.8-4.5-3.5
		c-0.9-0.3-2.2-0.5-3.8-0.6c-0.5-0.6-1-1.2-1.5-2c0.9-0.3,1.8-0.5,2.5-0.6c1.3,1,2.4,1.7,3.3,1.9c1,0.3,2,0.5,3,0.5
		c0.9,0,1.8-0.1,2.7-0.4c0,0,0,0,0,0c0.2,0,0.3-0.1,0.4-0.1c0,0,0.1-0.1,0.1-0.1s0-0.1,0-0.1c-0.1-0.1-0.2-0.2-0.3-0.3h0
		c-1.5-1.3-3.3-2.1-5.2-2.4c-0.9-0.1-2.2,0-3.8,0.3c-0.6-0.5-1.2-1-1.9-1.6c0.8-0.5,1.6-0.8,2.3-1.2c1.5,0.7,2.7,1.1,3.7,1.1
		c0.3,0,0.5,0,0.8,0c1.7,0,3.3-0.4,4.7-1.2c0.1-0.1,0.3-0.2,0.4-0.2c0,0,0.1-0.1,0.1-0.1C79.8,51.2,79.8,51.2,79.8,51.1z M73.2,46.1
		c1.5-0.5,3.2-0.6,4.7-0.3c-1.3,0.9-2.8,1.6-4.4,1.8c-0.7,0.1-1.7,0-3-0.2C71.6,46.8,72.5,46.4,73.2,46.1z M71.6,42.1
		c1.4-0.8,3-1.2,4.6-1.3c-1,1.2-2.4,2.2-3.8,2.7c-0.7,0.3-1.7,0.4-2.9,0.5C70.2,43.1,70.9,42.4,71.6,42.1z M69.1,38.4
		c1.2-1.1,2.6-1.9,4.2-2.3c-0.7,1.4-1.8,2.6-3.1,3.5c-0.6,0.4-1.5,0.8-2.7,1.1C68,39.7,68.6,38.9,69.1,38.4z M65.9,35.4
		c0.9-1.3,2.1-2.4,3.6-3.2c-0.4,1.5-1.2,3-2.3,4.1c-0.5,0.5-1.3,1.1-2.4,1.7C65.1,37,65.5,36.1,65.9,35.4z M62.1,33.3
		c0.6-1.5,1.5-2.8,2.8-3.9c-0.1,1.6-0.5,3.2-1.3,4.5c-0.4,0.6-1,1.4-2,2.2C61.6,34.9,61.8,33.9,62.1,33.3z M45.1,33.9
		c-0.8-1.4-1.2-3-1.3-4.6c1.2,1,2.2,2.4,2.7,3.8c0.3,0.7,0.4,1.7,0.5,2.9C46.1,35.3,45.5,34.5,45.1,33.9z M41.5,36.4
		c-1.1-1.2-1.9-2.6-2.3-4.2c1.4,0.7,2.6,1.8,3.5,3.1c0.4,0.6,0.8,1.5,1.1,2.7C42.8,37.5,42,36.9,41.5,36.4z M38.5,39.6
		c-1.3-0.9-2.4-2.1-3.2-3.5c1.5,0.4,3,1.2,4.1,2.3c0.5,0.5,1.1,1.3,1.7,2.4C40,40.4,39.1,40,38.5,39.6z M36.3,43.4
		c-1.5-0.6-2.8-1.5-3.9-2.8c1.6,0.1,3.2,0.5,4.5,1.3c0.6,0.4,1.4,1,2.2,2C38,43.8,37,43.7,36.3,43.4z M35,47.6
		c-1.6-0.2-3.1-0.9-4.4-1.8c1.6-0.3,3.2-0.2,4.7,0.3c0.7,0.2,1.6,0.7,2.6,1.4C36.7,47.6,35.7,47.7,35,47.6z M34.7,52
		c-1.6,0.1-3.2-0.2-4.7-0.8c1.5-0.6,3-0.9,4.6-0.8c0.7,0.1,1.7,0.3,2.8,0.8C36.4,51.6,35.4,51.9,34.7,52z M35.3,56.3
		c-1.5,0.5-3.2,0.6-4.7,0.3c1.3-0.9,2.8-1.6,4.4-1.8c0.7-0.1,1.7,0,3,0.2C36.9,55.6,36,56.1,35.3,56.3z M36.9,60.4
		c-1.4,0.8-3,1.2-4.6,1.3c1-1.2,2.4-2.2,3.8-2.7c0.7-0.3,1.7-0.4,2.9-0.5C38.3,59.4,37.6,60,36.9,60.4z M39.4,64
		c-1.2,1.1-2.6,1.9-4.2,2.3c0.7-1.4,1.8-2.6,3.1-3.5c0.6-0.4,1.5-0.8,2.7-1.1C40.5,62.7,39.9,63.5,39.4,64z M42.6,67
		c-0.9,1.3-2.1,2.4-3.5,3.2c0.4-1.5,1.2-3,2.3-4.1c0.5-0.5,1.3-1.1,2.4-1.7C43.4,65.5,43,66.4,42.6,67z M46.4,69.2
		c-0.6,1.5-1.5,2.8-2.8,3.9c0.1-1.6,0.5-3.2,1.3-4.5c0.4-0.6,1-1.4,2-2.2C46.9,67.5,46.7,68.5,46.4,69.2z M63.4,68.5
		c0.8,1.4,1.2,3,1.3,4.6c-1.2-1-2.2-2.4-2.7-3.8c-0.3-0.7-0.4-1.7-0.5-2.9C62.4,67.2,63,67.9,63.4,68.5z M67,66.1
		c1.1,1.2,1.9,2.6,2.3,4.2c-1.4-0.7-2.6-1.8-3.5-3.1c-0.4-0.6-0.8-1.5-1.1-2.7C65.7,64.9,66.5,65.5,67,66.1z M70,62.8
		c1.3,0.9,2.4,2.1,3.2,3.5c-1.5-0.4-3-1.2-4.1-2.3c-0.5-0.5-1.1-1.3-1.7-2.4C68.5,62,69.4,62.4,70,62.8z M72.2,59
		c1.5,0.6,2.8,1.5,3.9,2.8c-1.6-0.1-3.2-0.5-4.5-1.3c-0.6-0.4-1.4-1-2.2-2C70.5,58.6,71.5,58.8,72.2,59z M73.5,54.8
		c1.6,0.2,3.1,0.9,4.4,1.8c-1.6,0.3-3.2,0.2-4.7-0.3c-0.7-0.2-1.6-0.7-2.6-1.4C71.8,54.8,72.8,54.7,73.5,54.8z M57.9,32
		c0.2-1.6,0.9-3.1,1.8-4.4c0.3,1.6,0.2,3.2-0.3,4.7c-0.2,0.7-0.7,1.6-1.4,2.6C57.8,33.7,57.8,32.7,57.9,32z M53.5,31.6
		c-0.1-1.6,0.2-3.2,0.8-4.7c0.6,1.5,0.9,3.1,0.8,4.6c-0.1,0.7-0.3,1.7-0.8,2.8C53.8,33.3,53.6,32.4,53.5,31.6z M49.2,32.3
		c-0.5-1.5-0.6-3.2-0.3-4.7c0.9,1.3,1.6,2.8,1.8,4.4c0.1,0.7,0,1.7-0.2,3C49.9,33.9,49.4,33,49.2,32.3z M50.6,70.5
		c-0.2,1.6-0.9,3.1-1.8,4.4c-0.3-1.6-0.2-3.2,0.3-4.7c0.2-0.7,0.7-1.6,1.4-2.6C50.7,68.8,50.7,69.7,50.6,70.5z M55,70.8
		c0.1,1.6-0.2,3.2-0.8,4.7c-0.6-1.5-0.9-3.1-0.8-4.6c0.1-0.7,0.3-1.7,0.8-2.8C54.7,69.1,54.9,70.1,55,70.8z M59.3,70.1
		c0.5,1.5,0.6,3.2,0.3,4.7c-0.9-1.3-1.6-2.8-1.8-4.4c-0.1-0.7-0.1-1.7,0.2-3C58.6,68.6,59.1,69.4,59.3,70.1z M67.3,52.3
		c-0.3-0.3-0.6-0.5-0.8-0.8c0,0.3,0,0.6,0,0.9c0.1,0.1,0.2,0.2,0.3,0.3c-0.1,0.1-0.2,0.1-0.3,0.2c0,0.3-0.1,0.6-0.1,0.9
		c0.3-0.2,0.6-0.4,1-0.6c0.6,0.5,1.2,1,1.7,1.5c-0.7,0.2-1.4,0.3-2.2,0.6c-0.2-0.3-0.4-0.6-0.6-0.9c-0.1,0.3-0.1,0.6-0.2,0.8
		c0.1,0.1,0.1,0.2,0.2,0.3c-0.1,0-0.2,0.1-0.4,0.1c-0.1,0.3-0.2,0.5-0.3,0.8c0.4-0.1,0.7-0.2,1.1-0.3c0.5,0.7,0.9,1.3,1.3,1.8
		c-0.7,0-1.4,0-2.3,0.1c-0.1-0.4-0.3-0.7-0.4-1.1c-0.1,0.3-0.3,0.5-0.4,0.8c0,0.1,0.1,0.2,0.1,0.4c-0.1,0-0.2,0-0.4,0
		c-0.2,0.2-0.3,0.5-0.5,0.7c0.4,0,0.8-0.1,1.2-0.1c0.3,0.8,0.6,1.4,0.9,2.1c-0.7-0.1-1.4-0.3-2.2-0.4c-0.1-0.4-0.1-0.8-0.2-1.1
		c-0.2,0.2-0.4,0.4-0.6,0.6c0,0.1,0,0.2,0.1,0.4c-0.1,0-0.2,0-0.4-0.1c-0.2,0.2-0.4,0.4-0.7,0.6c0.4,0.1,0.7,0.1,1.1,0.2
		c0.1,0.8,0.3,1.5,0.4,2.2c-0.6-0.3-1.3-0.6-2.1-0.9c0-0.4,0.1-0.8,0.1-1.1c-0.2,0.2-0.5,0.3-0.7,0.5c0,0.1,0,0.2,0,0.4
		c-0.1,0-0.2-0.1-0.4-0.1c-0.3,0.2-0.5,0.3-0.8,0.4c0.3,0.1,0.7,0.3,1.1,0.4c-0.1,0.8-0.1,1.6-0.1,2.2c-0.5-0.4-1.1-0.9-1.8-1.3
		c0.1-0.4,0.2-0.7,0.3-1.1c-0.3,0.1-0.5,0.2-0.8,0.3c0,0.1-0.1,0.2-0.1,0.4c-0.1-0.1-0.2-0.1-0.3-0.2c-0.3,0.1-0.6,0.2-0.9,0.2
		c0.3,0.2,0.6,0.4,1,0.7c-0.2,0.8-0.4,1.5-0.6,2.2c-0.4-0.5-0.9-1.1-1.5-1.7c0.2-0.4,0.4-0.7,0.6-1c-0.3,0.1-0.6,0.1-0.8,0.1
		c-0.1,0.1-0.1,0.2-0.2,0.3c-0.1-0.1-0.2-0.2-0.3-0.3c-0.3,0-0.6,0-0.9,0c0.3,0.3,0.5,0.5,0.8,0.8c-0.4,0.7-0.8,1.4-1,2
		c-0.3-0.6-0.7-1.3-1.1-2c0.3-0.3,0.5-0.6,0.8-0.8c-0.3,0-0.6,0-0.9,0c-0.1,0.1-0.2,0.2-0.3,0.3c-0.1-0.1-0.1-0.2-0.2-0.3
		c-0.3,0-0.6-0.1-0.9-0.1c0.2,0.3,0.4,0.6,0.6,1c-0.6,0.6-1,1.2-1.5,1.7c-0.2-0.7-0.4-1.4-0.6-2.2c0.3-0.2,0.6-0.4,0.9-0.6
		c-0.3-0.1-0.6-0.1-0.8-0.2c-0.1,0.1-0.2,0.1-0.3,0.2c0-0.1-0.1-0.2-0.1-0.4c-0.3-0.1-0.6-0.2-0.8-0.3c0.1,0.4,0.2,0.7,0.3,1.1
		c-0.7,0.5-1.3,0.9-1.8,1.3c0-0.7,0-1.4-0.1-2.3c0.4-0.1,0.7-0.3,1.1-0.4c-0.3-0.1-0.5-0.3-0.8-0.4c-0.1,0-0.2,0.1-0.4,0.1
		c0-0.1,0-0.2,0-0.4c-0.2-0.2-0.5-0.3-0.7-0.5c0,0.4,0.1,0.8,0.1,1.2c-0.8,0.3-1.4,0.6-2.1,0.9c0.1-0.7,0.3-1.4,0.4-2.2
		c0.4-0.1,0.7-0.1,1.1-0.2c-0.2-0.2-0.4-0.4-0.6-0.6c-0.1,0-0.2,0-0.4,0.1c0-0.1,0-0.2,0.1-0.4c-0.2-0.2-0.4-0.4-0.6-0.7
		c-0.1,0.4-0.1,0.7-0.2,1.1c-0.8,0.1-1.5,0.3-2.2,0.4c0.3-0.6,0.6-1.3,0.9-2.1c0.4,0,0.8,0.1,1.1,0.1c-0.2-0.2-0.3-0.5-0.5-0.7
		c-0.1,0-0.2,0-0.4,0c0-0.1,0.1-0.2,0.1-0.4c-0.2-0.3-0.3-0.5-0.4-0.8c-0.1,0.3-0.3,0.7-0.4,1.1c-0.8,0-1.5-0.1-2.2-0.1
		c0.4-0.5,0.9-1.1,1.3-1.8c0.4,0.1,0.7,0.2,1.1,0.3c-0.1-0.3-0.2-0.5-0.3-0.8c-0.1,0-0.2-0.1-0.4-0.1c0.1-0.1,0.1-0.2,0.2-0.3
		c-0.1-0.3-0.2-0.6-0.2-0.9c-0.2,0.3-0.4,0.6-0.7,1c-0.8-0.2-1.5-0.4-2.2-0.6c0.5-0.4,1.1-0.9,1.7-1.5c0.3,0.2,0.7,0.4,1,0.6
		c-0.1-0.3-0.1-0.6-0.1-0.8c-0.1-0.1-0.2-0.1-0.3-0.2c0.1-0.1,0.2-0.2,0.3-0.3c0-0.3,0-0.6,0-0.9c-0.3,0.3-0.5,0.5-0.8,0.8
		c-0.7-0.4-1.4-0.8-2-1c0.6-0.3,1.3-0.7,2-1.1c0.3,0.3,0.6,0.5,0.8,0.8c0-0.3,0-0.6,0-0.9c-0.1-0.1-0.2-0.2-0.3-0.3
		c0.1-0.1,0.2-0.1,0.3-0.2c0-0.3,0.1-0.6,0.1-0.9c-0.3,0.2-0.6,0.4-1,0.6c-0.6-0.6-1.2-1-1.7-1.5c0.7-0.2,1.4-0.3,2.2-0.6
		c0.2,0.3,0.4,0.6,0.6,0.9c0.1-0.3,0.1-0.6,0.2-0.8c-0.1-0.1-0.1-0.2-0.2-0.3c0.1,0,0.2-0.1,0.4-0.1c0.1-0.3,0.2-0.5,0.3-0.8
		c-0.4,0.1-0.7,0.2-1.1,0.3c-0.5-0.7-0.9-1.3-1.3-1.8c0.7,0,1.4,0,2.3-0.1c0.1,0.4,0.3,0.7,0.4,1.1c0.1-0.3,0.3-0.5,0.4-0.8
		c0-0.1-0.1-0.2-0.1-0.4c0.1,0,0.2,0,0.4,0c0.2-0.2,0.3-0.5,0.5-0.7c-0.4,0-0.7,0.1-1.2,0.1c-0.3-0.8-0.6-1.4-0.9-2.1
		c0.7,0.1,1.4,0.3,2.2,0.4c0.1,0.4,0.1,0.8,0.2,1.1c0.2-0.2,0.4-0.4,0.6-0.6c0-0.1,0-0.2-0.1-0.4c0.1,0,0.2,0,0.4,0.1
		c0.2-0.2,0.4-0.4,0.7-0.6c-0.4-0.1-0.7-0.1-1.1-0.2c-0.1-0.8-0.3-1.5-0.4-2.2c0.6,0.3,1.3,0.6,2.1,0.9c0,0.4-0.1,0.8-0.1,1.1
		c0.2-0.2,0.5-0.3,0.7-0.5c0-0.1,0-0.2,0-0.4c0.1,0,0.2,0.1,0.4,0.1c0.3-0.2,0.5-0.3,0.8-0.4c-0.4-0.1-0.7-0.3-1.1-0.4
		c0-0.8,0.1-1.6,0.1-2.2c0.5,0.4,1.1,0.9,1.8,1.3c-0.1,0.4-0.2,0.7-0.3,1.1c0.3-0.1,0.5-0.2,0.8-0.3c0-0.1,0.1-0.2,0.1-0.4
		c0.1,0.1,0.2,0.1,0.3,0.2c0.3-0.1,0.6-0.2,0.9-0.2c-0.3-0.2-0.6-0.4-1-0.7c0.2-0.8,0.4-1.5,0.6-2.2c0.4,0.5,0.9,1.1,1.5,1.7
		c-0.2,0.3-0.4,0.7-0.6,1c0.3-0.1,0.6-0.1,0.8-0.1c0.1-0.1,0.1-0.2,0.2-0.3c0.1,0.1,0.2,0.2,0.3,0.3c0.3,0,0.6,0,0.9,0
		c-0.3-0.3-0.5-0.5-0.8-0.8c0.4-0.7,0.8-1.4,1-2c0.3,0.6,0.6,1.3,1.1,2c-0.3,0.3-0.5,0.6-0.8,0.8c0.3,0,0.6,0,0.9,0
		c0.1-0.1,0.2-0.2,0.3-0.3c0.1,0.1,0.1,0.2,0.2,0.3c0.3,0,0.6,0.1,0.9,0.1c-0.2-0.3-0.4-0.6-0.6-1c0.5-0.6,1-1.2,1.5-1.7
		c0.2,0.7,0.3,1.4,0.6,2.2c-0.3,0.2-0.6,0.4-0.9,0.6c0.3,0.1,0.6,0.1,0.8,0.2c0.1-0.1,0.2-0.1,0.3-0.2c0,0.1,0.1,0.2,0.1,0.4
		c0.3,0.1,0.6,0.2,0.8,0.3c-0.1-0.4-0.2-0.7-0.3-1.1c0.7-0.5,1.3-0.9,1.8-1.3c0,0.7,0,1.5,0.1,2.3c-0.4,0.1-0.7,0.3-1.1,0.4
		c0.3,0.1,0.5,0.3,0.8,0.4c0.1,0,0.2-0.1,0.4-0.1c0,0.1,0,0.2,0,0.4c0.2,0.2,0.5,0.3,0.7,0.5c0-0.4-0.1-0.7-0.1-1.2
		c0.8-0.3,1.4-0.6,2.1-0.9c-0.1,0.7-0.3,1.4-0.4,2.2c-0.4,0.1-0.8,0.1-1.1,0.2c0.2,0.2,0.4,0.4,0.6,0.6c0.1,0,0.2,0,0.4-0.1
		c0,0.1,0,0.2-0.1,0.4c0.2,0.2,0.4,0.4,0.6,0.6c0-0.4,0.1-0.7,0.2-1.1c0.8-0.1,1.5-0.3,2.2-0.4c-0.3,0.6-0.6,1.3-0.9,2.1
		c-0.4,0-0.8-0.1-1.1-0.1c0.2,0.2,0.3,0.5,0.5,0.7c0.1,0,0.2,0,0.4,0c0,0.1-0.1,0.2-0.1,0.4c0.2,0.3,0.3,0.5,0.4,0.8
		c0.1-0.3,0.3-0.7,0.4-1.1c0.8,0,1.6,0.1,2.2,0.1c-0.4,0.5-0.9,1.2-1.3,1.8c-0.4-0.1-0.7-0.2-1.1-0.3c0.1,0.3,0.2,0.5,0.3,0.8
		c0.1,0,0.2,0.1,0.4,0.1c-0.1,0.1-0.1,0.2-0.2,0.3c0.1,0.3,0.2,0.6,0.2,0.9c0.2-0.3,0.4-0.6,0.7-1c0.8,0.2,1.5,0.4,2.2,0.6
		c-0.5,0.4-1.1,0.9-1.7,1.5c-0.3-0.2-0.6-0.4-1-0.6c0.1,0.3,0.1,0.6,0.1,0.8c0.1,0.1,0.2,0.1,0.3,0.2c-0.1,0.1-0.2,0.2-0.3,0.3
		c0,0.3,0,0.6,0,0.9c0.3-0.3,0.6-0.5,0.8-0.8c0.7,0.4,1.4,0.7,2,1C68.7,51.6,68.1,51.9,67.3,52.3z M73.9,52.1
		c-0.7-0.1-1.7-0.3-2.8-0.8c1.1-0.5,2.1-0.7,2.8-0.8c1.6-0.1,3.2,0.2,4.7,0.8C77,51.9,75.5,52.2,73.9,52.1z"/>
	<path fill="#FBF6F0" d="M57.5,50.2h-2.7l1.7-4.3c0,0,0,0,0,0c0-0.1,0-0.1-0.1-0.1c0,0,0,0-0.1,0c-0.1,0-0.1,0.1-0.1,0.1
		c0,0,0,0,0,0l-5.4,5.9c0,0,0,0,0,0.1c0,0.1,0.1,0.1,0.1,0.1h2.5l-1.7,4.7v0c0,0,0,0,0,0c0,0.1,0,0.1,0.1,0.1c0,0,0.1,0,0.1,0
		l5.6-6.3c0,0,0-0.1,0-0.1C57.6,50.2,57.6,50.2,57.5,50.2z"/>
</g>
<g>
	<g>
		<path fill="#FBF6F0" d="M54.3,105C54.2,105,54.3,105,54.3,105c-15.9,0-30.9-6.2-42.1-17.6c-0.1-0.1-0.1-0.4,0-0.5
			c0.1-0.1,0.4-0.1,0.5,0c11.1,11.2,25.9,17.4,41.6,17.4c15.7,0,30.5-6.2,41.6-17.4c0.1-0.1,0.4-0.1,0.5,0c0.1,0.1,0.1,0.4,0,0.5
			C85.1,98.8,70.2,105,54.3,105z"/>
	</g>
	<g>
		<path fill="#FBF6F0" d="M54.3,89.1c-11.7,0-22.7-4.6-30.9-12.9c-0.1-0.1-0.1-0.4,0-0.5c0.1-0.1,0.4-0.1,0.5,0
			c8.1,8.2,18.9,12.7,30.4,12.7c11.5,0,22.3-4.5,30.4-12.7c0.1-0.1,0.4-0.1,0.5,0c0.1,0.1,0.1,0.4,0,0.5
			C76.9,84.5,65.9,89.1,54.3,89.1z"/>
	</g>
	<g>
		<path fill="#FBF6F0" d="M13.4,95.2c-0.1,0-0.1,0-0.2,0C7.8,92,3.9,89.1,0.6,85.9c-0.1-0.1-0.1-0.2-0.1-0.3c0-0.1,0.1-0.2,0.2-0.3
			l8.5-3.8l2.4-7.2c0-0.1,0.1-0.2,0.3-0.2c0.1,0,0.2,0,0.3,0.1c2.2,2.2,4.6,4.2,7.2,5.8c0.2,0.1,0.2,0.3,0.1,0.5
			c-0.1,0.2-0.3,0.2-0.5,0.1c-2.5-1.6-4.8-3.5-6.9-5.5l-2.3,6.8c0,0.1-0.1,0.2-0.2,0.2l-8.2,3.7c3.1,3.1,6.9,5.8,12.1,8.9
			c0.2,0.1,0.2,0.3,0.1,0.5C13.7,95.2,13.5,95.2,13.4,95.2z"/>
	</g>
	<g>
		<path fill="#FBF6F0" d="M13.4,95.2c0,0-0.1,0-0.1,0c-0.1,0-0.2-0.2-0.2-0.3l-1-7.7c0-0.1,0-0.2,0.1-0.3l11.2-11.3
			c0.1-0.1,0.4-0.1,0.5,0c0.1,0.1,0.1,0.4,0,0.5l-11,11.1l0.9,6.9l3.3-3c0.1-0.1,0.4-0.1,0.5,0c0.1,0.1,0.1,0.4,0,0.5l-3.8,3.4
			C13.6,95.2,13.5,95.2,13.4,95.2z"/>
	</g>
	<g>
		<path fill="#FBF6F0" d="M95.1,95.2c-0.1,0-0.2-0.1-0.3-0.2c-0.1-0.2,0-0.4,0.1-0.5c5.2-3,9-5.8,12.1-8.9l-8.2-3.7
			c-0.1,0-0.2-0.1-0.2-0.2L96.3,75c-2.1,2.1-4.4,3.9-6.9,5.5c-0.2,0.1-0.4,0.1-0.5-0.1c-0.1-0.2-0.1-0.4,0.1-0.5
			c2.6-1.7,5-3.6,7.2-5.8c0.1-0.1,0.2-0.1,0.3-0.1c0.1,0,0.2,0.1,0.3,0.2l2.5,7.2l8.5,3.8c0.1,0,0.2,0.1,0.2,0.3
			c0,0.1,0,0.2-0.1,0.3c-3.3,3.3-7.1,6.2-12.6,9.3C95.2,95.2,95.1,95.2,95.1,95.2z"/>
	</g>
	<g>
		<path fill="#FBF6F0" d="M95.1,95.2c-0.1,0-0.2,0-0.2-0.1l-3.8-3.4c-0.1-0.1-0.2-0.4,0-0.5c0.1-0.1,0.4-0.2,0.5,0l3.3,3l0.9-6.9
			l-11-11.1c-0.1-0.1-0.1-0.4,0-0.5c0.1-0.1,0.4-0.1,0.5,0l11.2,11.3c0.1,0.1,0.1,0.2,0.1,0.3l-1,7.7c0,0.1-0.1,0.2-0.2,0.3
			C95.2,95.2,95.1,95.2,95.1,95.2z"/>
	</g>
	<g>
		<path fill="#FBF6F0" d="M25.5,90.4c-0.9,0-1.7-0.8-1.7-1.7c0-0.9,0.8-1.7,1.7-1.7c0.9,0,1.7,0.8,1.7,1.7
			C27.2,89.7,26.5,90.4,25.5,90.4z M25.5,87.7c-0.5,0-1,0.4-1,1c0,0.5,0.4,1,1,1c0.5,0,1-0.4,1-1C26.5,88.2,26.1,87.7,25.5,87.7z"/>
	</g>
	<g>
		<path fill="#FBF6F0" d="M83,90.4c-0.9,0-1.7-0.8-1.7-1.7S82,87,83,87s1.7,0.8,1.7,1.7S83.9,90.4,83,90.4z M83,87.7
			c-0.5,0-1,0.4-1,1s0.4,1,1,1s1-0.4,1-1S83.5,87.7,83,87.7z"/>
	</g>
</g>
<g>
	<g>
		<path fill="#FBF6F0" d="M33.6,96.3l5.1-7.4l2,0.8l-1.1,8.9L38.1,98l0.2-1.9l-2.2-0.8l-1.1,1.6L33.6,96.3z M37,94l1.5,0.6L39,91
			l0,0L37,94z"/>
	</g>
	<g>
		<path fill="#FBF6F0" d="M43.1,90.9l1.5,0.2l0.3,5.8l0,0l2.1-5.5l1.6,0.3l0.3,5.8l0,0l2-5.5l1.5,0.3l-3.3,8.3l-1.6-0.3l-0.3-6.1
			l0,0l-2.2,5.7l-1.6-0.3L43.1,90.9z"/>
	</g>
	<g>
		<path fill="#FBF6F0" d="M53,101l1.9-8.8l2.1-0.1l2.3,8.7l-1.6,0l-0.5-1.8L55,99.1l-0.4,1.9L53,101z M55.3,97.6l1.6,0l-0.9-3.5l0,0
			L55.3,97.6z"/>
	</g>
	<g>
		<path fill="#FBF6F0" d="M66.1,99.6l-2.2-3.2l-0.8,0.2l0.8,3.5l-1.6,0.4l-1.9-8.6l2.4-0.5c2-0.4,3.1,0.3,3.4,1.9
			c0.2,1.1,0,1.9-0.8,2.5l2.4,3.5L66.1,99.6z M62.9,95.2l0.8-0.2c0.7-0.2,1.1-0.6,0.9-1.4c-0.2-0.8-0.7-1.1-1.4-0.9l-0.8,0.2
			L62.9,95.2z"/>
	</g>
	<g>
		<path fill="#FBF6F0" d="M68.1,89.9l2.2-0.8c1.8-0.7,3.1-0.3,3.9,1.8l0.9,2.5c0.7,2.1,0,3.2-1.8,3.9l-2.2,0.8L68.1,89.9z
			 M72.2,96.1l0.5-0.2c0.9-0.3,1.2-0.9,0.7-2.1l-0.8-2.2c-0.4-1.2-1-1.5-2-1.1l-0.5,0.2L72.2,96.1z"/>
	</g>
</g>
<g>
	<path fill="#FBF6F0" d="M4.9,43.8l0.6-2.9c0.4-2.1,1.7-2.8,3.6-2.4c1,0.2,1.9,0.8,2.1,1.8c0.6-0.9,1.6-1.3,3-1
		c1.9,0.4,3.1,1.5,2.6,3.7l-0.6,3.1L4.9,43.8z M9.9,42.8l0.1-0.7c0.2-0.7-0.2-1.4-1.2-1.6c-1-0.2-1.7,0.1-1.9,0.9l-0.2,0.7L9.9,42.8
		z M15,43.9l0.2-0.8c0.2-1-0.3-1.5-1.4-1.8c-1.2-0.2-1.8,0.1-2.1,1.2l-0.1,0.6L15,43.9z"/>
	<path fill="#FBF6F0" d="M18.7,37l-0.8,1.8l-9.7-6.6l1-2.3l11.4,2.7l-0.8,1.8l-2.5-0.7l-0.9,2L18.7,37z M15,34.7l0.6-1.5L10.8,32
		l0,0L15,34.7z"/>
	<path fill="#FBF6F0" d="M13.5,25.5l-1.1,1.6L11,26.1l3.2-4.9l1.4,0.9l-1.1,1.6l8.2,5.4l-1.1,1.7L13.5,25.5z"/>
	<path fill="#FBF6F0" d="M18.5,18.8l-1.3,1.4l-1.3-1.2l4-4.3l1.3,1.2l-1.3,1.4l7.2,6.7l-1.4,1.5L18.5,18.8z"/>
	<path fill="#FBF6F0" d="M29.5,21.7l-6.9-9.3l4.3-3.2l1,1.4l-2.7,2L27,15l2.1-1.5l1,1.4l-2.1,1.5l2,2.7L33,17l1,1.4L29.5,21.7z"/>
	<path fill="#FBF6F0" d="M37.4,16.6l-1.8,0.8L30.8,7l2.5-1.2c2-0.9,3.5-0.6,4.5,1.7c0.8,1.7,0.4,2.7,0,3.2l3.7,4l-1.8,0.8l-3.3-3.8
		c-0.2,0.1-0.6,0.3-0.9,0.5L37.4,16.6z M34.7,10.8l0.6-0.3c1-0.4,1.2-1,0.6-2.2c-0.6-1.2-1.1-1.4-2.1-1l-0.6,0.3L34.7,10.8z"/>
	<path fill="#FBF6F0" d="M46.5,13.5l-1.9,0.5l-1.1-4.7l-3.9-6l2-0.5l2.4,4l0,0l0.3-4.6l2-0.5l-0.8,7.1L46.5,13.5z"/>
	<path fill="#FBF6F0" d="M54.4,12.5L55.2,1l2.9,0.2c2.5,0.2,3.5,1.2,3.3,3.7C61.2,7.3,60,8.2,57.6,8l-0.9-0.1l-0.4,4.7L54.4,12.5z
		 M56.8,6.3l0.8,0.1c1.3,0.1,1.7-0.3,1.8-1.6s-0.3-1.8-1.6-1.9l-0.8-0.1L56.8,6.3z"/>
	<path fill="#FBF6F0" d="M65.1,5c0.5-1.6,1.8-2.6,3.8-2s2.5,2.2,2.1,3.7l-1.7,5.7c-0.5,1.6-1.8,2.6-3.8,2c-2-0.6-2.5-2.1-2.1-3.7
		L65.1,5z M65.3,11.2c-0.2,0.8-0.1,1.3,0.6,1.5c0.8,0.2,1.1-0.1,1.4-0.9L69,6.2c0.2-0.8,0.1-1.3-0.6-1.5c-0.8-0.2-1.1,0.1-1.4,0.9
		L65.3,11.2z"/>
	<path fill="#FBF6F0" d="M79.3,7.7l1.4,0.8l-2.6,7l0,0l4.7-5.7l1.6,1l-7.7,8.8l-1.4-0.9l2.7-7.3l0,0l-5.1,5.8l-1.4-0.9l4.1-11l1.6,1
		l-2.8,6.9l0,0L79.3,7.7z"/>
	<path fill="#FBF6F0" d="M79.5,21.9l8.1-8.2l3.8,3.8l-1.2,1.2l-2.4-2.4l-2.1,2.1l1.8,1.8l-1.2,1.2l-1.8-1.8L82.1,22l2.5,2.5
		l-1.2,1.2L79.5,21.9z"/>
	<path fill="#FBF6F0" d="M85.7,28.9l-1.1-1.7l9.6-6.4l1.5,2.3c1.2,1.9,1.1,3.3-1,4.7c-1.5,1-2.6,0.8-3.2,0.4l-3.4,4.3l-1.1-1.7
		l3.2-3.8c-0.2-0.2-0.4-0.5-0.6-0.8L85.7,28.9z M91,25.4l0.4,0.6c0.6,0.9,1.1,1,2.3,0.3c1.1-0.8,1.3-1.3,0.7-2.2L94,23.4L91,25.4z"
		/>
	<path fill="#FBF6F0" d="M89,34.3L99.7,30l2,5l-1.6,0.6l-1.2-3.1l-2.8,1.1L97,36l-1.6,0.6l-0.9-2.4l-3.2,1.2l1.3,3.3L91,39.5
		L89,34.3z"/>
	<path fill="#FBF6F0" d="M102.9,39.3l0.5,2.9c0.3,2-0.6,3.3-2.9,3.7L96,46.7c-2.3,0.4-3.6-0.5-4-2.5l-0.5-2.9L102.9,39.3z
		 M93.5,42.9l0.1,0.7c0.2,1,0.6,1.3,1.8,1.1l5-0.9c1.2-0.2,1.5-0.6,1.4-1.7l-0.1-0.7L93.5,42.9z"/>
</g>
<g>
	<g>
		<g>
			<path fill="#FBF6F0" d="M9,62.2c-0.1,0-0.2,0-0.3-0.1c-0.1-0.1-0.1-0.4,0-0.5l3.5-3.5c0.1-0.1,0.4-0.1,0.5,0
				c0.1,0.1,0.1,0.4,0,0.5l-3.5,3.5C9.1,62.2,9.1,62.2,9,62.2z"/>
		</g>
		<g>
			<path fill="#FBF6F0" d="M12.5,62.3c-0.1,0-0.2,0-0.3-0.1l-3.5-3.5c-0.1-0.1-0.1-0.4,0-0.5c0.1-0.1,0.4-0.1,0.5,0l3.5,3.5
				c0.1,0.1,0.1,0.4,0,0.5C12.6,62.2,12.6,62.3,12.5,62.3z"/>
		</g>
	</g>
	<g>
		<g>
			<path fill="#FBF6F0" d="M96,62.2c-0.1,0-0.2,0-0.3-0.1c-0.1-0.1-0.1-0.4,0-0.5l3.5-3.5c0.1-0.1,0.4-0.1,0.5,0
				c0.1,0.1,0.1,0.4,0,0.5l-3.5,3.5C96.2,62.2,96.1,62.2,96,62.2z"/>
		</g>
		<g>
			<path fill="#FBF6F0" d="M99.5,62.3c-0.1,0-0.2,0-0.3-0.1l-3.5-3.5c-0.1-0.1-0.1-0.4,0-0.5s0.4-0.1,0.5,0l3.5,3.5
				c0.1,0.1,0.1,0.4,0,0.5C99.7,62.2,99.6,62.3,99.5,62.3z"/>
		</g>
	</g>
</g>
</svg>
